# 3ds Max Wavefront OBJ Exporter v0.97b - (c)2007 guruware
# File Created: 26.09.2011 14:16:07

#
# object Box
#

v  -1.3562 -2.0096 -1.0893
v  1.3374 -2.0096 -1.0893
v  1.3374 -2.0096 0.0008
v  -1.3562 1.9858 -1.0893
v  -1.3562 -2.0096 0.0008
v  1.3374 1.9858 -1.0893
v  -1.3562 1.9858 0.0008
v  1.3374 1.9858 0.0008
v  1.2893 1.9517 -1.0570
v  -1.3225 1.9371 -1.0570
v  -1.2792 -1.9609 -1.0570
v  1.2893 -1.9755 0.0008
v  -1.3225 -1.9609 0.0008
v  1.3037 1.9371 0.0008
v  -1.3081 1.9517 0.0008
v  1.3037 -1.9609 -1.0570
# 16 vertices

vn 0.0000 -1.0000 0.0000
vn -1.0000 0.0000 0.0000
vn 0.0000 1.0000 0.0000
vn 1.0000 0.0000 0.0000
vn 0.0000 0.0000 -1.0000
vn 0.0000 0.0000 1.0000
vn -0.9999 -0.0037 -0.0137
vn 0.0056 -0.9999 -0.0139
vn 0.9998 0.0111 -0.0138
vn 0.0056 0.9999 0.0139
vn -0.9999 0.0037 0.0137
vn -0.0056 -0.9999 0.0139
vn 0.9992 -0.0037 0.0409
# 13 vertex normals

vt 0.9867 0.0923 0.0000
vt 0.0142 0.0926 0.0000
vt 0.0139 0.0118 0.0000
vt 0.9868 0.0121 0.0000
vt 0.2113 0.0336 0.0000
vt 0.2133 0.0757 0.0000
vt 0.2064 0.0762 0.0000
vt 0.7663 0.0334 0.0000
vt 0.2064 0.0328 0.0000
vt 0.7684 0.0754 0.0000
vt 0.7732 0.0328 0.0000
vt 0.7732 0.0762 0.0000
vt 0.0141 0.0926 0.0000
# 13 texture coords

g Box
f 1/1/1 2/2/1 3/3/1 
f 4/1/2 1/2/2 5/3/2 
f 6/3/3 4/4/3 7/1/3 
f 2/1/4 6/2/4 8/3/4 
f 4/2/5 6/3/5 2/4/5 
f 9/4/6 10/1/6 11/2/6 
f 12/5/6 13/6/6 5/7/6 
f 14/8/6 12/5/6 3/9/6 
f 15/10/6 14/8/6 8/11/6 
f 13/6/6 15/10/6 7/12/6 
f 16/3/3 11/4/3 13/1/3 
f 9/3/7 16/4/7 12/1/7 
f 10/1/8 9/13/8 14/3/8 
f 11/1/9 10/2/9 15/3/9 
f 5/4/1 1/1/1 3/3/1 
f 7/4/2 4/1/2 5/3/2 
f 8/2/3 6/3/3 7/1/3 
f 3/4/4 2/1/4 8/3/4 
f 1/1/5 4/2/5 2/4/5 
f 16/3/6 9/4/6 11/2/6 
f 3/9/6 12/5/6 5/7/6 
f 8/11/6 14/8/6 3/9/6 
f 7/12/6 15/10/6 8/11/6 
f 5/7/6 13/6/6 7/12/6 
f 12/13/10 16/3/10 13/1/10 
f 14/2/11 9/3/11 12/1/11 
f 15/4/12 10/1/12 14/3/12 
f 13/4/13 11/1/13 15/3/13 
# 28 faces

