# Max2Obj Version 4.0 Mar 10th, 2001
#
# object Back1 to come ...
#
v  -0.460934 -0.543359 0.031149
v  0.460934 -0.543359 0.031149
v  0.519217 -0.519217 0.031149
v  0.543359 -0.460934 0.031149
v  0.543359 0.460934 0.031149
v  0.519217 0.519217 0.031149
v  0.460934 0.543359 0.031149
v  -0.460934 0.543359 0.031149
v  -0.519217 0.519217 0.031149
v  -0.543359 0.460934 0.031149
v  -0.543359 -0.460934 0.031149
v  -0.519217 -0.519217 0.031149
v  -0.460934 -0.460934 0.036000
v  0.460934 -0.460934 0.036000
v  0.460934 0.460934 0.036000
v  -0.460934 0.460934 0.036000
v  -0.460934 -0.577500 -0.036000
v  0.460934 -0.577500 -0.036000
v  0.543359 -0.543359 -0.036000
v  0.577500 -0.460934 -0.036000
v  0.577500 0.460934 -0.036000
v  0.543359 0.543359 -0.036000
v  0.460934 0.577500 -0.036000
v  -0.460934 0.577500 -0.036000
v  -0.543359 0.543359 -0.036000
v  -0.577500 0.460934 -0.036000
v  -0.577500 -0.460934 -0.036000
v  -0.543359 -0.543359 -0.036000
v  -0.460934 -0.577500 0.019436
v  0.460934 -0.577500 0.019436
v  0.543359 -0.543359 0.019436
v  0.577500 -0.460934 0.019436
v  0.577500 0.460934 0.019436
v  0.543359 0.543359 0.019436
v  0.460934 0.577500 0.019436
v  -0.460934 0.577500 0.019436
v  -0.543359 0.543359 0.019436
v  -0.577500 0.460934 0.019436
v  -0.577500 -0.460934 0.019436
v  -0.543359 -0.543359 0.019436
# 40 vertices

vt  0.992559 0.976572 0.000000
vt  0.992559 0.992924 0.000000
vt  0.584783 0.976572 0.000000
vt  0.466779 0.007076 0.000000
vt  0.466779 0.021437 0.000000
vt  0.059002 0.007076 0.000000
vt  0.584783 0.992924 0.000000
vt  0.059002 0.021437 0.000000
vt  0.466779 0.056109 0.000000
vt  0.059002 0.056109 0.000000
vt  0.022543 0.021437 0.000000
vt  0.033221 0.031592 0.000000
vt  0.007441 0.056109 0.000000
vt  0.548323 0.931917 0.000000
vt  0.533221 0.931917 0.000000
vt  0.533221 0.915566 0.000000
vt  0.492559 0.031592 0.000000
vt  0.548323 0.915566 0.000000
vt  0.503238 0.021437 0.000000
vt  0.584783 0.931917 0.000000
vt  0.503238 0.056109 0.000000
vt  0.584783 0.915566 0.000000
vt  0.992559 0.915566 0.000000
vt  0.992559 0.931917 0.000000
vt  0.503238 0.443891 0.000000
vt  0.518340 0.056109 0.000000
vt  0.466779 0.443891 0.000000
vt  0.548323 0.946069 0.000000
vt  0.548323 0.962421 0.000000
vt  0.533221 0.946069 0.000000
vt  0.584783 0.946069 0.000000
vt  0.584783 0.962421 0.000000
vt  0.533221 0.962421 0.000000
vt  0.492559 0.468408 0.000000
vt  0.518340 0.443891 0.000000
vt  0.992559 0.946069 0.000000
vt  0.992559 0.962421 0.000000
vt  0.548323 0.885062 0.000000
vt  0.548323 0.901414 0.000000
vt  0.533221 0.885062 0.000000
vt  0.466779 0.478563 0.000000
vt  0.503238 0.478563 0.000000
vt  0.584783 0.885062 0.000000
vt  0.584783 0.901414 0.000000
vt  0.992559 0.885062 0.000000
vt  0.992559 0.901414 0.000000
vt  0.059002 0.478563 0.000000
vt  0.466779 0.492924 0.000000
vt  0.059002 0.443891 0.000000
vt  0.548323 0.976572 0.000000
vt  0.548323 0.992924 0.000000
vt  0.533221 0.976572 0.000000
vt  0.533221 0.901414 0.000000
vt  0.033221 0.468408 0.000000
vt  0.059002 0.492924 0.000000
vt  0.022543 0.443891 0.000000
vt  0.022543 0.478563 0.000000
vt  0.022543 0.056109 0.000000
vt  0.007441 0.443891 0.000000
vt  0.533221 0.992924 0.000000
# 60 texture vertices

vn  -0.049000 -0.192787 0.980016
vn  0.031834 -0.219862 0.975012
vn  0.136116 -0.174328 0.975234
vn  0.192787 -0.049000 0.980016
vn  0.219862 0.031834 0.975012
vn  0.174328 0.136116 0.975234
vn  0.049000 0.192787 0.980016
vn  -0.031834 0.219862 0.975012
vn  -0.136116 0.174328 0.975234
vn  -0.192787 0.049000 0.980016
vn  -0.219862 -0.031834 0.975012
vn  -0.174328 -0.136116 0.975234
vn  -0.040139 -0.028381 0.998791
vn  0.028381 -0.040139 0.998791
vn  0.040139 0.028381 0.998791
vn  -0.028381 0.040139 0.998791
vn  -0.129773 -0.991544 0.000000
vn  0.259547 -0.965730 0.000000
vn  0.797176 -0.603746 0.000000
vn  0.991544 -0.129773 0.000000
vn  0.965730 0.259547 0.000000
vn  0.603746 0.797176 0.000000
vn  0.129773 0.991544 0.000000
vn  -0.259547 0.965730 0.000000
vn  -0.797176 0.603746 0.000000
vn  -0.991544 0.129773 0.000000
vn  -0.965730 -0.259547 0.000000
vn  -0.603746 -0.797176 0.000000
vn  -0.185789 -0.789491 0.584967
vn  0.133837 -0.802389 0.581600
vn  0.526489 -0.601823 0.600515
vn  0.789491 -0.185789 0.584967
vn  0.802389 0.133837 0.581600
vn  0.601823 0.526489 0.600515
vn  0.185789 0.789491 0.584967
vn  -0.133837 0.802389 0.581600
vn  -0.526489 0.601823 0.600515
vn  -0.789491 0.185789 0.584967
vn  -0.802389 -0.133837 0.581600
vn  -0.601823 -0.526489 0.600515
# 40 vertex normals

g Back1
s 1
f 18/1/18 30/2/30 17/3/17
f 30/4/30 2/5/2 29/6/29
f 30/2/30 29/7/29 17/3/17
f 2/5/2 1/8/1 29/6/29
f 14/9/14 13/10/13 1/8/1
f 2/5/2 14/9/14 1/8/1
f 40/11/40 12/12/12 39/13/39
f 31/14/31 30/15/30 18/16/18
f 3/17/3 2/5/2 30/4/30
f 3/17/3 14/9/14 2/5/2
f 19/18/19 31/14/31 18/16/18
f 31/19/31 3/17/3 30/4/30
f 32/20/32 31/14/31 19/18/19
f 4/21/4 3/17/3 31/19/31
f 4/21/4 14/9/14 3/17/3
f 20/22/20 32/20/32 19/18/19
f 21/23/21 33/24/33 20/22/20
f 33/24/33 32/20/32 20/22/20
f 5/25/5 4/21/4 32/26/32
f 15/27/15 14/9/14 4/21/4
f 22/28/22 34/29/34 21/30/21
f 23/31/23 35/32/35 22/28/22
f 34/29/34 33/33/33 21/30/21
f 6/34/6 5/25/5 33/35/33
f 6/34/6 15/27/15 5/25/5
f 24/36/24 36/37/36 23/31/23
f 25/38/25 37/39/37 24/40/24
f 35/32/35 34/29/34 22/28/22
f 7/41/7 6/34/6 34/42/34
f 7/41/7 15/27/15 6/34/6
f 26/43/26 38/44/38 25/38/25
f 27/45/27 39/46/39 26/43/26
f 36/37/36 35/32/35 23/31/23
f 8/47/8 7/41/7 35/48/35
f 16/49/16 15/27/15 7/41/7
f 28/50/28 40/51/40 27/52/27
f 17/3/17 29/7/29 28/50/28
f 37/39/37 36/53/36 24/40/24
f 9/54/9 8/47/8 36/55/36
f 9/54/9 16/49/16 8/47/8
f 32/26/32 4/21/4 31/19/31
f 33/35/33 5/25/5 32/26/32
f 38/44/38 37/39/37 25/38/25
f 10/56/10 9/54/9 37/57/37
f 10/56/10 16/49/16 9/54/9
f 5/25/5 15/27/15 4/21/4
f 34/42/34 6/34/6 33/35/33
f 39/46/39 38/44/38 26/43/26
f 11/58/11 10/56/10 38/59/38
f 13/10/13 16/49/16 10/56/10
f 35/48/35 7/41/7 34/42/34
f 36/55/36 8/47/8 35/48/35
f 40/51/40 39/60/39 27/52/27
f 12/12/12 11/58/11 39/13/39
f 12/12/12 13/10/13 11/58/11
f 8/47/8 16/49/16 7/41/7
f 37/57/37 9/54/9 36/55/36
f 29/7/29 40/51/40 28/50/28
f 1/8/1 12/12/12 40/11/40
f 1/8/1 13/10/13 12/12/12
f 29/6/29 1/8/1 40/11/40
f 38/59/38 10/56/10 37/57/37
f 39/13/39 11/58/11 38/59/38
f 11/58/11 13/10/13 10/56/10
# 64 faces

g
# object Back2 to come ...
#
v  -0.460934 -0.577500 -0.036000
v  0.460934 -0.577500 -0.036000
v  0.543359 -0.543359 -0.036000
v  0.577500 -0.460934 -0.036000
v  0.577500 0.460934 -0.036000
v  0.543359 0.543359 -0.036000
v  0.460934 0.577500 -0.036000
v  -0.460934 0.577500 -0.036000
v  -0.543359 0.543359 -0.036000
v  -0.577500 0.460934 -0.036000
v  -0.577500 -0.460934 -0.036000
v  -0.543359 -0.543359 -0.036000
v  0.000000 0.000000 -0.036000
# 13 vertices

vt  0.466779 0.507076 0.000000
vt  0.262625 0.598632 0.000000
vt  0.059002 0.507076 0.000000
vt  0.503238 0.521437 0.000000
vt  0.388026 0.609277 0.000000
vt  0.059002 0.992924 0.000000
vt  0.262556 0.894260 0.000000
vt  0.466779 0.992924 0.000000
vt  0.022543 0.978563 0.000000
vt  0.131975 0.882879 0.000000
vt  0.007441 0.943891 0.000000
vt  0.114739 0.868993 0.000000
vt  0.518340 0.556109 0.000000
vt  0.402014 0.625139 0.000000
vt  0.518340 0.943891 0.000000
vt  0.417556 0.747974 0.000000
vt  0.007441 0.556109 0.000000
vt  0.107150 0.748039 0.000000
vt  0.022543 0.521437 0.000000
vt  0.122804 0.625888 0.000000
vt  0.137038 0.610432 0.000000
vt  0.503238 0.978563 0.000000
vt  0.409967 0.869620 0.000000
vt  0.392960 0.883929 0.000000
# 24 texture vertices

vn  0.000000 0.000000 -1.000000
vn  0.000000 0.000000 -1.000000
vn  0.000000 0.000000 -1.000000
vn  0.000000 0.000000 -1.000000
vn  0.000000 0.000000 -1.000000
vn  0.000000 0.000000 -1.000000
vn  0.000000 0.000000 -1.000000
vn  0.000000 0.000000 -1.000000
vn  0.000000 0.000000 -1.000000
vn  0.000000 0.000000 -1.000000
vn  0.000000 0.000000 -1.000000
vn  0.000000 0.000000 -1.000000
vn  0.000000 0.000000 -1.000000
# 13 vertex normals

g Back2
s 1
f 47/61/47 53/62/53 48/63/48
f 46/64/46 53/65/53 47/61/47
f 41/66/41 53/67/53 42/68/42
f 52/69/52 53/70/53 41/66/41
f 51/71/51 53/72/53 52/69/52
f 45/73/45 53/74/53 46/64/46
f 44/75/44 53/76/53 45/73/45
f 50/77/50 53/78/53 51/71/51
f 49/79/49 53/80/53 50/77/50
f 48/63/48 53/81/53 49/79/49
f 43/82/43 53/83/53 44/75/44
f 42/68/42 53/84/53 43/82/43
# 12 faces

g
# object Front to come ...
#
v  -0.460934 -0.460934 0.036000
v  0.460934 -0.460934 0.036000
v  0.460934 0.460934 0.036000
v  -0.460934 0.460934 0.036000
# 4 vertices

vt  0.466779 0.443891 0.000000
vt  0.059002 0.443891 0.000000
vt  0.059002 0.056109 0.000000
vt  0.466779 0.056109 0.000000
# 4 texture vertices

vn  0.000000 0.000000 1.000000
vn  0.000000 0.000000 1.000000
vn  0.000000 0.000000 1.000000
vn  0.000000 0.000000 1.000000
# 4 vertex normals

g Front
s 1
f 56/85/56 57/86/57 54/87/54
f 55/88/55 56/85/56 54/87/54
# 2 faces

g
