# 3ds Max Wavefront OBJ Exporter v0.97b - (c)2007 guruware
# File Created: 26.09.2011 14:15:16

#
# object Lid
#

v  1.4000 -2.0500 0.1613
v  -1.4000 -2.0500 0.1613
v  -1.4000 -2.0500 -0.4529
v  1.4000 2.0500 0.1613
v  1.4000 -2.0500 -0.4529
v  -1.4000 2.0500 0.1613
v  1.4000 2.0500 -0.4529
v  -1.4000 2.0500 -0.4529
v  -1.3500 2.0150 0.1290
v  1.3650 2.0000 0.1290
v  1.3200 -2.0000 0.1290
v  -1.3500 -2.0150 -0.4529
v  1.3650 -2.0000 -0.4529
v  -1.3650 2.0000 -0.4529
v  1.3500 2.0150 -0.4529
v  -1.3650 -2.0000 0.1290
# 16 vertices

vn 0.0000 -1.0000 0.0000
vn 1.0000 0.0000 0.0000
vn 0.0000 1.0000 0.0000
vn -1.0000 0.0000 0.0000
vn 0.0000 0.0000 1.0000
vn 0.0000 0.0000 -1.0000
vn 0.9997 -0.0037 0.0259
vn -0.0055 -0.9996 0.0259
vn -0.9996 0.0112 0.0261
vn -0.0055 0.9996 -0.0259
vn 0.9997 0.0037 -0.0259
vn 0.0055 -0.9996 -0.0259
vn -0.9970 -0.0037 -0.0771
# 13 vertex normals

vt 0.9890 0.0924 0.0000
vt 0.0113 0.0924 0.0000
vt 0.0113 0.0090 0.0000
vt 0.9904 0.2586 0.0000
vt 0.0086 0.2586 0.0000
vt 0.0086 0.1115 0.0000
vt 0.9887 0.0926 0.0000
vt 0.0114 0.0926 0.0000
vt 0.0114 0.0091 0.0000
vt 0.9902 0.2587 0.0000
vt 0.0078 0.2587 0.0000
vt 0.0078 0.1129 0.0000
vt 0.0057 0.9957 0.0000
vt 0.0057 0.2791 0.0000
vt 0.9941 0.2791 0.0000
vt 0.9891 0.0103 0.0000
vt 0.9855 0.0929 0.0000
vt 0.0122 0.0916 0.0000
vt 0.3284 0.0244 0.0000
vt 0.3294 0.0791 0.0000
vt 0.3259 0.0798 0.0000
vt 0.6118 0.0241 0.0000
vt 0.3259 0.0234 0.0000
vt 0.6128 0.0788 0.0000
vt 0.6153 0.0234 0.0000
vt 0.6153 0.0798 0.0000
vt 0.9880 0.0921 0.0000
vt 0.0275 0.0921 0.0000
vt 0.0114 0.0089 0.0000
vt 0.0111 0.0087 0.0000
vt 0.9840 0.0087 0.0000
vt 0.9876 0.0894 0.0000
vt 0.0112 0.0090 0.0000
vt 0.9819 0.0090 0.0000
vt 0.9872 0.0916 0.0000
vt 0.9884 0.0898 0.0000
vt 0.0146 0.0898 0.0000
vt 0.0110 0.0095 0.0000
vt 0.9890 0.0090 0.0000
vt 0.9904 0.1115 0.0000
vt 0.9887 0.0091 0.0000
vt 0.9902 0.1129 0.0000
vt 0.9941 0.9957 0.0000
vt 0.0122 0.0099 0.0000
vt 0.9826 0.0089 0.0000
vt 0.0147 0.0894 0.0000
vt 0.0166 0.0916 0.0000
vt 0.9883 0.0095 0.0000
# 48 texture coords

g Lid
f 1/1/1 2/2/1 3/3/1 
f 4/4/2 1/5/2 5/6/2 
f 6/7/3 4/8/3 7/9/3 
f 2/10/4 6/11/4 8/12/4 
f 4/13/5 6/14/5 2/15/5 
f 9/16/6 10/17/6 11/18/6 
f 12/19/6 13/20/6 5/21/6 
f 14/22/6 12/19/6 3/23/6 
f 15/24/6 14/22/6 8/25/6 
f 13/20/6 15/24/6 7/26/6 
f 16/27/3 11/28/3 13/29/3 
f 9/30/7 16/31/7 12/32/7 
f 10/33/8 9/34/8 14/35/8 
f 11/36/9 10/37/9 15/38/9 
f 5/39/1 1/1/1 3/3/1 
f 7/40/2 4/4/2 5/6/2 
f 8/41/3 6/7/3 7/9/3 
f 3/42/4 2/10/4 8/12/4 
f 1/43/5 4/13/5 2/15/5 
f 16/44/6 9/16/6 11/18/6 
f 3/23/6 12/19/6 5/21/6 
f 8/25/6 14/22/6 3/23/6 
f 7/26/6 15/24/6 8/25/6 
f 5/21/6 13/20/6 7/26/6 
f 12/45/10 16/27/10 13/29/10 
f 14/46/11 9/30/11 12/32/11 
f 15/47/12 10/33/12 14/35/12 
f 13/48/13 11/36/13 15/38/13 
# 28 faces

